<svg width="89" height="29" viewBox="0 0 89 29" fill="none" xmlns="http://www.w3.org/2000/svg">
<path d="M8.96931 2.19163C10.5841 -0.133067 13.7628 -0.698039 16.069 0.929735L25.4346 7.54021C27.6749 9.12147 28.2193 12.234 26.6507 14.4923C25.082 16.7506 21.9942 17.2994 19.7539 15.7182L6.2125 6.16035L8.96931 2.19163Z" fill="#0358F1"/>
<path d="M2.32791 11.7526C3.94273 9.42793 7.12134 8.86296 9.42754 10.4907L21.4776 18.9959C21.9717 19.3447 22.0918 20.0313 21.7458 20.5295L16.6917 27.8055L0.465899 16.3529C-0.0282875 16.0041 -0.148389 15.3175 0.197643 14.8194L2.32791 11.7526Z" fill="#0358F1"/>
<path d="M33.0114 8.02161V4.82538H47.9506V8.02161H42.3817V23.1612H38.5803V8.02161H33.0114Z" fill="#0358F1"/>
<path d="M51.3733 23.4209C50.5029 23.4209 49.7272 23.2687 49.0463 22.9643C48.3653 22.6539 47.8265 22.1973 47.4298 21.5944C47.039 20.9856 46.8436 20.2276 46.8436 19.3204C46.8436 18.5564 46.9827 17.9147 47.261 17.3955C47.5393 16.8762 47.9183 16.4584 48.3979 16.142C48.8775 15.8257 49.4222 15.5869 50.0321 15.4258C50.6479 15.2646 51.2934 15.1512 51.9684 15.0856C52.7618 15.002 53.4013 14.9244 53.8868 14.8528C54.3724 14.7752 54.7247 14.6618 54.9438 14.5126C55.1629 14.3634 55.2724 14.1425 55.2724 13.8501V13.7963C55.2724 13.2293 55.0948 12.7906 54.7395 12.4802C54.3901 12.1699 53.8928 12.0147 53.2473 12.0147C52.5664 12.0147 52.0246 12.1669 51.622 12.4713C51.2193 12.7697 50.9529 13.1457 50.8226 13.5994L47.3232 13.3129C47.5008 12.4773 47.8502 11.755 48.3712 11.1462C48.8923 10.5315 49.5644 10.0599 50.3874 9.73165C51.2164 9.3974 52.1756 9.23028 53.2651 9.23028C54.023 9.23028 54.7484 9.31981 55.4412 9.49887C56.1399 9.67793 56.7586 9.95547 57.2974 10.3315C57.8422 10.7075 58.2715 11.191 58.5853 11.7819C58.8991 12.3668 59.056 13.0682 59.056 13.8859V23.1612H55.4678V21.2542H55.3612C55.1421 21.684 54.849 22.063 54.4819 22.3913C54.1148 22.7136 53.6737 22.9672 53.1585 23.1523C52.6434 23.3313 52.0483 23.4209 51.3733 23.4209ZM52.4569 20.7887C53.0135 20.7887 53.5049 20.6782 53.9312 20.4574C54.3576 20.2306 54.6921 19.9262 54.9349 19.5442C55.1777 19.1622 55.299 18.7295 55.299 18.246V16.7867C55.1806 16.8642 55.0178 16.9359 54.8105 17.0015C54.6092 17.0612 54.3813 17.1179 54.1266 17.1716C53.872 17.2194 53.6174 17.2641 53.3628 17.3059C53.1082 17.3417 52.8773 17.3746 52.67 17.4044C52.2259 17.4701 51.8381 17.5745 51.5065 17.7178C51.1749 17.861 50.9174 18.055 50.7338 18.2997C50.5502 18.5385 50.4585 18.8369 50.4585 19.195C50.4585 19.7143 50.645 20.1112 51.018 20.3858C51.397 20.6544 51.8766 20.7887 52.4569 20.7887Z" fill="#0358F1"/>
<path d="M61.4913 28.3182V9.40934H65.2216V11.7192H65.3904C65.5562 11.3492 65.796 10.9731 66.1098 10.5911C66.4295 10.2032 66.844 9.88087 67.3533 9.62421C67.8684 9.36159 68.5079 9.23028 69.2717 9.23028C70.2665 9.23028 71.1843 9.4929 72.0251 10.0181C72.8659 10.5374 73.538 11.3223 74.0413 12.3728C74.5446 13.4173 74.7962 14.7274 74.7962 16.3032C74.7962 17.8371 74.5505 19.1324 74.059 20.1888C73.5735 21.2393 72.9103 22.0361 72.0695 22.5793C71.2346 23.1165 70.2991 23.3851 69.2628 23.3851C68.5286 23.3851 67.9039 23.2627 67.3888 23.018C66.8796 22.7733 66.4621 22.4659 66.1364 22.0958C65.8108 21.7198 65.5621 21.3408 65.3904 20.9588H65.2749V28.3182H61.4913ZM65.195 16.2853C65.195 17.103 65.3075 17.8163 65.5325 18.4251C65.7575 19.0339 66.0832 19.5084 66.5095 19.8486C66.9358 20.1828 67.4539 20.35 68.0638 20.35C68.6796 20.35 69.2007 20.1799 69.627 19.8396C70.0533 19.4935 70.376 19.016 70.5951 18.4072C70.8201 17.7924 70.9326 17.0851 70.9326 16.2853C70.9326 15.4914 70.8231 14.7931 70.604 14.1903C70.3849 13.5874 70.0622 13.1159 69.6359 12.7757C69.2096 12.4355 68.6855 12.2654 68.0638 12.2654C67.448 12.2654 66.9269 12.4295 66.5006 12.7578C66.0802 13.0861 65.7575 13.5516 65.5325 14.1545C65.3075 14.7573 65.195 15.4676 65.195 16.2853Z" fill="#0358F1"/>
<path d="M76.0326 23.1612V20.3679L82.5074 14.3246C83.0581 13.7874 83.5199 13.3039 83.893 12.8742C84.2719 12.4444 84.5591 12.0236 84.7545 11.6118C84.9499 11.194 85.0476 10.7433 85.0476 10.2599C85.0476 9.72269 84.9262 9.26012 84.6834 8.87216C84.4407 8.47822 84.1091 8.1768 83.6887 7.9679C83.2683 7.75302 82.7916 7.64559 82.2587 7.64559C81.7021 7.64559 81.2166 7.75899 80.8021 7.9858C80.3876 8.21261 80.0679 8.53791 79.8429 8.96168C79.6179 9.38546 79.5053 9.88982 79.5053 10.4748H75.8549C75.8549 9.27504 76.1243 8.2335 76.6632 7.35014C77.202 6.46677 77.957 5.78335 78.928 5.29989C79.8991 4.81642 81.0182 4.57469 82.2854 4.57469C83.588 4.57469 84.7219 4.80747 85.6871 5.27303C86.6582 5.73262 87.4131 6.37127 87.9519 7.18898C88.4908 8.00669 88.7602 8.94378 88.7602 10.0002C88.7602 10.6926 88.624 11.376 88.3516 12.0505C88.0852 12.725 87.6085 13.474 86.9217 14.2977C86.2348 15.1154 85.2667 16.0973 84.0173 17.2433L81.3616 19.8665V19.9918H89V23.1612H76.0326Z" fill="#0358F1"/>
</svg>
